#!OML:ASF H:\ManfredETheater\Project 1\Capture day 1\Session 1\subject.ASF
:FULLY-SPECIFIED
:DEGREES
295
root -1.4638 17.142 46.1664 0.821264 -7.4592 1.85342
lowerback 7.24586 -0.158232 -3.90021
upperback -2.5407 -0.56007 0.619335
thorax -6.69558 -0.0954496 2.91616
lowerneck -20.18 -3.50465 -4.21518
upperneck 11.5474 -4.15086 3.59793
head 6.97741 -1.85215 1.36814
rclavicle -3.59831e-014 1.59028e-015
rhumerus -44.8174 -18.1145 -68.216
rradius 33.0207
rwrist -0.407777
rhand -19.4484 -13.6177
rfingers 7.12502
rthumb 6.87227 -43.4862
lclavicle -3.59831e-014 1.59028e-015
lhumerus -43.3054 14.7537 72.0238
lradius 35.5671
lwrist -11.8618
lhand -7.4978 9.39462
lfingers 7.12502
lthumb 18.392 38.5451
rfemur -10.2625 -5.1169 13.1764
rtibia 55.2138
rfoot 14.0605 25.2496
rtoes 18.4919
lfemur -19.1838 2.03874 -24.2136
ltibia 33.2548
lfoot -10.7194 -0.158814
ltoes 0.791956
296
root -1.45923 17.1433 46.2297 0.677882 -7.34643 2.02094
lowerback 7.38361 -0.223549 -4.1134
upperback -2.51197 -0.677196 0.572766
thorax -6.7342 -0.144559 3.00398
lowerneck -20.1559 -3.48866 -4.2133
upperneck 11.5001 -4.12503 3.57155
head 6.95627 -1.84257 1.36272
rclavicle 5.42931e-015 5.36719e-015
rhumerus -44.9439 -18.2784 -67.996
rradius 33.1413
rwrist -0.461524
rhand -19.5052 -13.6129
rfingers 7.12502
rthumb 6.81745 -43.4831
lclavicle 5.42931e-015 5.36719e-015
lhumerus -43.1308 14.4689 72.2196
lradius 35.5596
lwrist -12.0781
lhand -7.31444 9.2017
lfingers 7.12502
lthumb 18.5684 38.3355
rfemur -11.0909 -5.76741 12.7562
rtibia 56.8529
rfoot 13.5904 24.5937
rtoes 17.3867
lfemur -18.7521 2.01808 -24.4661
ltibia 33.1205
lfoot -10.8505 -0.0807788
ltoes 0.60025
297
root -1.45543 17.1445 46.2913 0.553704 -7.21681 2.09272
lowerback 7.51479 -0.292389 -4.23206
upperback -2.47124 -0.78746 0.556696
thorax -6.75648 -0.194144 3.06984
lowerneck -20.1609 -3.47568 -4.2062
upperneck 11.4461 -4.10194 3.53711
head 6.93751 -1.83447 1.3532
rclavicle -2.48605e-014 -1.98785e-015
rhumerus -45.0485 -18.4657 -67.779
rradius 33.2693
rwrist -0.53865
rhand -19.5807 -13.6074
rfingers 7.12502
rthumb 6.74464 -43.4799
lclavicle -2.48605e-014 -1.98785e-015
lhumerus -42.9143 14.223 72.4156
lradius 35.5581
lwrist -12.3112
lhand -7.17412 9.01217
lfingers 7.12502
lthumb 18.7033 38.133
rfemur -11.8779 -6.41095 12.4706
rtibia 58.3618
rfoot 12.4836 23.7811
rtoes 15.1878
lfemur -18.3607 1.91204 -24.6081
ltibia 33.0382
lfoot -10.9856 0.0632748
ltoes 0.459099
298
root -1.45188 17.1453 46.352 0.441649 -7.07232 2.09433
lowerback 7.62598 -0.366867 -4.27456
upperback -2.40961 -0.894876 0.562177
thorax -6.7452 -0.246245 3.11478
lowerneck -20.205 -3.46337 -4.19257
upperneck 11.3834 -4.07905 3.49884
head 6.92204 -1.82609 1.34096
rclavicle 1.32533e-014 -1.55052e-014
rhumerus -45.1166 -18.6796 -67.5708
rradius 33.3968
rwrist -0.633146
rhand -19.6635 -13.6091
rfingers 7.12502
rthumb 6.66465 -43.4842
lclavicle 1.32533e-014 -1.55052e-014
lhumerus -42.6509 14.0302 72.6063
lradius 35.5677
lwrist -12.5509
lhand -7.07193 8.84699
lfingers 7.12502
lthumb 18.8016 37.9583
rfemur -12.6116 -7.06089 12.2814
rtibia 59.7338
rfoot 10.9374 22.8327
rtoes 12.4264
lfemur -17.9987 1.74976 -24.6724
ltibia 33.005
lfoot -11.1332 0.245003
ltoes 0.344074
299
root -1.44827 17.1458 46.412 0.338882 -6.91284 2.06544
lowerback 7.71469 -0.439458 -4.27193
upperback -2.34449 -0.993379 0.57723
thorax -6.71816 -0.29613 3.1429
lowerneck -20.2284 -3.45765 -4.18808
upperneck 11.3034 -4.06314 3.46174
head 6.89804 -1.82163 1.33002
rclavicle 7.99487e-015 -3.77691e-015
rhumerus -45.1898 -18.9165 -67.3476
rradius 33.5221
rwrist -0.748154
rhand -19.75 -13.6208
rfingers 7.12502
rthumb 6.58117 -43.4986
lclavicle 7.99487e-015 -3.77691e-015
lhumerus -42.3735 13.8611 72.7986
lradius 35.5947
lwrist -12.7777
lhand -7.00528 8.72144
lfingers 7.12502
lthumb 18.8657 37.8266
rfemur -13.2939 -7.72974 12.1371
rtibia 60.9682
rfoot 9.04401 21.7666
rtoes 9.25037
lfemur -17.6621 1.54314 -24.7043
ltibia 33.0099
lfoot -11.2911 0.447253
ltoes 0.260219
300
root -1.44518 17.1463 46.4709 0.245802 -6.75385 2.00976
lowerback 7.79181 -0.506083 -4.23973
upperback -2.28194 -1.07964 0.602767
thorax -6.68839 -0.341034 3.16368
lowerneck -20.232 -3.45653 -4.19277
upperneck 11.2134 -4.05233 3.42938
head 6.86808 -1.81983 1.32174
rclavicle -4.40743e-015 -9.93923e-015
rhumerus -45.2708 -19.1668 -67.1124
rradius 33.6399
rwrist -0.873045
rhand -19.8328 -13.6402
rfingers 7.12502
rthumb 6.5012 -43.5205
lclavicle -4.40743e-015 -9.93923e-015
lhumerus -42.096 13.7066 72.9939
lradius 35.654
lwrist -12.9646
lhand -6.98299 8.64814
lfingers 7.12502
lthumb 18.8872 37.7512
rfemur -13.938 -8.3961 12.0419
rtibia 62.0644
rfoot 6.9137 20.5813
rtoes 5.96464
lfemur -17.3487 1.32209 -24.7034
ltibia 33.0384
lfoot -11.4522 0.649335
ltoes 0.213404
301
root -1.44272 17.1467 46.5289 0.157003 -6.59759 1.95459
lowerback 7.85316 -0.566582 -4.20706
upperback -2.2166 -1.15672 0.630176
thorax -6.64737 -0.381742 3.18464
lowerneck -20.2331 -3.45878 -4.19804
upperneck 11.1231 -4.04635 3.3989
head 6.83785 -1.82021 1.31362
rclavicle 2.7103e-014 -4.57205e-015
rhumerus -45.3478 -19.4239 -66.8781
rradius 33.7474
rwrist -1.00448
rhand -19.9059 -13.6785
rfingers 7.12502
rthumb 6.43066 -43.5609
lclavicle 2.7103e-014 -4.57205e-015
lhumerus -41.813 13.5592 73.1946
lradius 35.7528
lwrist -13.0847
lhand -6.99713 8.63822
lfingers 7.12502
lthumb 18.8736 37.7426
rfemur -14.5426 -9.0549 11.9632
rtibia 63.0214
rfoot 4.68503 19.3025
rtoes 2.66798
lfemur -17.0491 1.10817 -24.6991
ltibia 33.0776
lfoot -11.6137 0.827707
ltoes 0.200361
302
root -1.44131 17.1474 46.5858 0.0711569 -6.45479 1.89607
lowerback 7.91086 -0.61657 -4.17712
upperback -2.15661 -1.21974 0.661214
thorax -6.61107 -0.415137 3.20912
lowerneck -20.2199 -3.46377 -4.20772
upperneck 11.0376 -4.04482 3.37552
head 6.80732 -1.82238 1.30815
rclavicle 8.94842e-015 -1.39149e-015
rhumerus -45.4291 -19.6763 -66.6451
rradius 33.8388
rwrist -1.14003
rhand -19.9725 -13.7306
rfingers 7.12502
rthumb 6.36634 -43.6149
lclavicle 8.94842e-015 -1.39149e-015
lhumerus -41.543 13.4002 73.4044
lradius 35.9025
lwrist -13.116
lhand -7.04856 8.69713
lfingers 7.12502
lthumb 18.8241 37.8063
rfemur -15.1124 -9.68023 11.912
rtibia 63.8337
rfoot 2.55227 17.9571
rtoes 0.318714
lfemur -16.7587 0.906414 -24.6837
ltibia 33.1206
lfoot -11.7743 0.990923
ltoes 0.205477
303
root -1.44134 17.1484 46.6412 -0.00666904 -6.33094 1.84683
lowerback 7.96121 -0.65502 -4.16803
upperback -2.10073 -1.26926 0.69242
thorax -6.57573 -0.440968 3.24369
lowerneck -20.2073 -3.47072 -4.21828
upperneck 10.9622 -4.04741 3.36091
head 6.78061 -1.82573 1.30516
rclavicle -5.00999e-015 -1.98785e-015
rhumerus -45.4986 -19.9156 -66.4276
rradius 33.9102
rwrist -1.27293
rhand -20.0326 -13.7997
rfingers 7.12502
rthumb 6.30838 -43.6858
lclavicle -5.00999e-015 -1.98785e-015
lhumerus -41.28 13.2169 73.6282
lradius 36.1083
lwrist -13.0453
lhand -7.13211 8.8116
lfingers 7.12502
lthumb 18.7438 37.9285
rfemur -15.66 -10.2537 11.8785
rtibia 64.4975
rfoot 0.622071 16.5569
rtoes -1.19003
lfemur -16.4849 0.726842 -24.6695
ltibia 33.1632
lfoot -11.9284 1.1337
ltoes 0.206611
304
root -1.4429 17.1497 46.696 -0.0813297 -6.2307 1.79566
lowerback 8.00096 -0.681932 -4.16988
upperback -2.04614 -1.30387 0.72689
thorax -6.53671 -0.459055 3.28568
lowerneck -20.1944 -3.47822 -4.2303
upperneck 10.8977 -4.05243 3.35721
head 6.75783 -1.82928 1.30565
rclavicle -1.39755e-014 3.77691e-015
rhumerus -45.5552 -20.1316 -66.2316
rradius 33.9611
rwrist -1.39371
rhand -20.0858 -13.8749
rfingers 7.12502
rthumb 6.257 -43.7625
lclavicle -1.39755e-014 3.77691e-015
lhumerus -41.028 12.9999 73.8675
lradius 36.3738
lwrist -12.8749
lhand -7.24762 8.96546
lfingers 7.12502
lthumb 18.6327 38.0931
rfemur -16.1733 -10.7569 11.8755
rtibia 65.0031
rfoot -1.06128 15.1257
rtoes -1.89426
lfemur -16.2165 0.574375 -24.6437
ltibia 33.204
lfoot -12.0801 1.2593
ltoes 0.216335
305
root -1.44584 17.151 46.7497 -0.147188 -6.153 1.73895
lowerback 8.03542 -0.697493 -4.17468
upperback -1.99993 -1.32342 0.763927
thorax -6.50474 -0.469268 3.33007
lowerneck -20.1788 -3.48691 -4.23995
upperneck 10.8508 -4.06099 3.35778
head 6.7405 -1.83403 1.30671
rclavicle -1.22222e-014 1.09332e-014
rhumerus -45.6046 -20.3171 -66.0592
rradius 33.994
rwrist -1.49507
rhand -20.1286 -13.953
rfingers 7.12502
rthumb 6.21563 -43.8418
lclavicle -1.22222e-014 1.09332e-014
lhumerus -40.7942 12.7368 74.1219
lradius 36.697
lwrist -12.616
lhand -7.3862 9.15038
lfingers 7.12502
lthumb 18.4994 38.2907
rfemur -16.6594 -11.1789 11.9065
rtibia 65.3466
rfoot -2.48249 13.6749
rtoes -1.95318
lfemur -15.9618 0.448903 -24.6032
ltibia 33.2441
lfoot -12.2284 1.36929
ltoes 0.221472
306
root -1.44988 17.1522 46.8029 -0.206055 -6.0922 1.6844
lowerback 8.05601 -0.703725 -4.18371
upperback -1.96173 -1.33052 0.800849
thorax -6.47435 -0.473049 3.37489
lowerneck -20.1436 -3.49717 -4.2588
upperneck 10.8094 -4.07249 3.37292
head 6.72249 -1.83947 1.31384
rclavicle -8.24801e-015 -1.39149e-015
rhumerus -45.6461 -20.4676 -65.91
rradius 34.0085
rwrist -1.5693
rhand -20.1613 -14.0308
rfingers 7.12502
rthumb 6.18406 -43.9206
lclavicle -8.24801e-015 -1.39149e-015
lhumerus -40.5862 12.4251 74.3905
lradius 37.0802
lwrist -12.2914
lhand -7.53913 9.34284
lfingers 7.12502
lthumb 18.3522 38.4971
rfemur -17.1079 -11.5229 11.9555
rtibia 65.5233
rfoot -3.6327 12.2343
rtoes -1.4213
lfemur -15.7156 0.348255 -24.5596
ltibia 33.285
lfoot -12.3801 1.46869
ltoes 0.195765
